<mxfile host="65bd71144e">
    <diagram id="fyhbHWjm8VAO4l988GE6" name="Page-1">
        <mxGraphModel dx="611" dy="779" grid="1" gridSize="10" guides="1" tooltips="1" connect="1" arrows="1" fold="1" page="1" pageScale="1" pageWidth="850" pageHeight="1100" math="0" shadow="0">
            <root>
                <mxCell id="0"/>
                <mxCell id="1" parent="0"/>
                <mxCell id="37" style="edgeStyle=none;html=1;entryX=0;entryY=0.5;entryDx=0;entryDy=0;" edge="1" parent="1" source="38" target="43">
                    <mxGeometry relative="1" as="geometry">
                        <mxPoint x="220" y="100" as="targetPoint"/>
                    </mxGeometry>
                </mxCell>
                <mxCell id="38" value="INÍCIO" style="ellipse;whiteSpace=wrap;html=1;aspect=fixed;fillColor=#d5e8d4;strokeColor=#82b366;" vertex="1" parent="1">
                    <mxGeometry x="20" y="100" width="40" height="40" as="geometry"/>
                </mxCell>
                <mxCell id="39" style="edgeStyle=none;html=1;" edge="1" parent="1" source="43" target="45">
                    <mxGeometry relative="1" as="geometry">
                        <mxPoint x="400" y="100" as="targetPoint"/>
                    </mxGeometry>
                </mxCell>
                <mxCell id="40" value="SIM" style="edgeLabel;html=1;align=center;verticalAlign=middle;resizable=0;points=[];" vertex="1" connectable="0" parent="39">
                    <mxGeometry x="-0.3617" y="1" relative="1" as="geometry">
                        <mxPoint as="offset"/>
                    </mxGeometry>
                </mxCell>
                <mxCell id="41" style="edgeStyle=none;html=1;entryX=0;entryY=0.5;entryDx=0;entryDy=0;" edge="1" parent="1" source="43" target="48">
                    <mxGeometry relative="1" as="geometry">
                        <mxPoint x="210" y="190" as="targetPoint"/>
                        <Array as="points">
                            <mxPoint x="210" y="190"/>
                        </Array>
                    </mxGeometry>
                </mxCell>
                <mxCell id="42" value="NÃO" style="edgeLabel;html=1;align=center;verticalAlign=middle;resizable=0;points=[];" vertex="1" connectable="0" parent="41">
                    <mxGeometry x="0.4123" y="1" relative="1" as="geometry">
                        <mxPoint as="offset"/>
                    </mxGeometry>
                </mxCell>
                <mxCell id="43" value="valorCompra &amp;gt;=&lt;div&gt;valorMinimoDesconto&lt;/div&gt;" style="rhombus;whiteSpace=wrap;html=1;" vertex="1" parent="1">
                    <mxGeometry x="100" y="50" width="150" height="140" as="geometry"/>
                </mxCell>
                <mxCell id="44" style="edgeStyle=none;html=1;entryX=0;entryY=0.5;entryDx=0;entryDy=0;" edge="1" parent="1" source="45" target="46">
                    <mxGeometry relative="1" as="geometry">
                        <mxPoint x="470" y="100" as="targetPoint"/>
                    </mxGeometry>
                </mxCell>
                <mxCell id="45" value="Desconto&amp;nbsp;&lt;div&gt;Concedido&lt;/div&gt;" style="shape=parallelogram;perimeter=parallelogramPerimeter;whiteSpace=wrap;html=1;fixedSize=1;" vertex="1" parent="1">
                    <mxGeometry x="315" y="90" width="120" height="60" as="geometry"/>
                </mxCell>
                <mxCell id="46" value="FIM" style="ellipse;whiteSpace=wrap;html=1;aspect=fixed;fillColor=#f8cecc;strokeColor=#b85450;" vertex="1" parent="1">
                    <mxGeometry x="470" y="100" width="40" height="40" as="geometry"/>
                </mxCell>
                <mxCell id="47" style="edgeStyle=none;html=1;entryX=0.5;entryY=1;entryDx=0;entryDy=0;" edge="1" parent="1" source="48" target="46">
                    <mxGeometry relative="1" as="geometry">
                        <Array as="points">
                            <mxPoint x="490" y="190"/>
                        </Array>
                    </mxGeometry>
                </mxCell>
                <mxCell id="48" value="Desconto&lt;div&gt;Negado&lt;/div&gt;" style="shape=parallelogram;perimeter=parallelogramPerimeter;whiteSpace=wrap;html=1;fixedSize=1;" vertex="1" parent="1">
                    <mxGeometry x="300" y="160" width="120" height="60" as="geometry"/>
                </mxCell>
            </root>
        </mxGraphModel>
    </diagram>
</mxfile>